<svg width="303" height="289" xmlns="http://www.w3.org/2000/svg" xmlns:xlink="http://www.w3.org/1999/xlink" xml:space="preserve" overflow="hidden"><g><path d="M179.65 254.326C179.65 254.07 179.906 253.967 180.162 254.121 180.469 254.274 180.674 254.53 180.674 254.684 180.674 254.786 180.469 254.889 180.162 254.889 179.906 254.889 179.65 254.633 179.65 254.326Z" fill="#FA02C3" transform="matrix(1 0 0 -1.00206 0 288.875)"/><path d="M174.174 253.609C174.174 253.199 174.379 252.841 174.634 252.841 174.839 252.841 175.044 253.199 175.044 253.609 175.044 254.018 174.839 254.377 174.634 254.377 174.379 254.377 174.174 254.018 174.174 253.609Z" fill="#FA02C3" transform="matrix(1 0 0 -1.00206 0 288.875)"/><path d="M171.871 252.995C172.178 252.892 172.792 252.892 173.15 252.995 173.457 253.148 173.201 253.251 172.485 253.251 171.768 253.251 171.512 253.148 171.871 252.995Z" fill="#FA02C3" transform="matrix(1 0 0 -1.00206 0 288.875)"/><path d="M225.51 251.971C225.356 251.766 225.203 250.947 225.203 250.026 225.203 249.156 224.998 248.184 224.691 247.825 224.333 247.365 224.333 247.365 224.793 247.723 225.868 248.644 226.278 248.286 226.124 246.443 225.919 243.321 227.864 242.656 228.427 245.624 228.888 247.877 226.533 252.995 225.51 251.971Z" fill="#FA02C3" transform="matrix(1 0 0 -1.00206 0 288.875)"/><path d="M187.84 244.14C188.863 243.475 189.529 243.475 189.119 244.14 188.966 244.447 188.403 244.652 187.942 244.652 187.174 244.652 187.174 244.55 187.84 244.14Z" fill="#FA02C3" transform="matrix(1 0 0 -1.00206 0 288.875)"/><path d="M186.304 243.731C186.304 243.526 186.662 242.912 187.072 242.4 187.84 241.428 187.84 241.428 187.84 242.451 187.84 243.014 187.481 243.628 187.072 243.833 186.662 243.987 186.304 243.935 186.304 243.731Z" fill="#FA02C3" transform="matrix(1 0 0 -1.00206 0 288.875)"/><path d="M199.765 243.372C199.765 243.014 200.072 242.809 200.482 242.963 200.84 243.117 201.147 243.27 201.147 243.372 201.147 243.475 200.84 243.628 200.482 243.782 200.072 243.935 199.765 243.731 199.765 243.372Z" fill="#FA02C3" transform="matrix(1 0 0 -1.00206 0 288.875)"/><path d="M221.671 242.912C221.006 242.195 220.187 241.786 219.777 241.939 218.805 242.298 218.856 241.325 219.88 240.302 221.006 239.176 222.9 239.483 222.9 240.813 222.9 241.376 223.104 241.991 223.36 242.144 223.616 242.349 223.565 242.861 223.309 243.321 222.9 244.089 222.695 244.038 221.671 242.912Z" fill="#FA02C3" transform="matrix(1 0 0 -1.00206 0 288.875)"/><path d="M190.04 241.991C190.04 241.325 190.092 241.12 190.245 241.479 190.399 241.786 190.859 242.093 191.32 242.093 192.088 242.093 192.088 242.195 191.422 242.605 190.296 243.321 190.092 243.219 190.04 241.991Z" fill="#FA02C3" transform="matrix(1 0 0 -1.00206 0 288.875)"/><path d="M188.607 242.093C188.454 241.837 188.556 241.581 188.812 241.581 189.119 241.581 189.375 241.837 189.375 242.093 189.375 242.4 189.273 242.605 189.17 242.605 189.017 242.605 188.761 242.4 188.607 242.093Z" fill="#FA02C3" transform="matrix(1 0 0 -1.00206 0 288.875)"/><path d="M250.282 240.148C250.282 239.739 250.026 239.636 249.668 239.841 249.31 240.046 249.361 239.79 249.873 239.278 251.05 238.049 252.073 238.459 251.101 239.79 250.64 240.404 250.333 240.557 250.282 240.148Z" fill="#FA02C3" transform="matrix(1 0 0 -1.00206 0 288.875)"/><path d="M209.694 237.128C209.183 236.668 209.285 233.238 209.797 232.419 210.053 232.061 210.513 231.908 210.82 232.061 211.179 232.317 211.332 232.164 211.281 231.754 211.076 230.935 214.864 230.526 215.58 231.242 215.888 231.549 215.324 231.703 214.045 231.601 212.714 231.549 212.049 231.703 212.049 232.164 212.049 232.624 212.305 232.675 212.97 232.317 214.045 231.754 215.12 231.703 214.813 232.266 214.659 232.471 215.222 232.624 216.041 232.675 216.962 232.727 217.372 232.522 217.167 232.164 216.962 231.856 217.167 231.856 217.577 232.215 218.191 232.727 218.498 232.727 218.958 232.266 219.419 231.805 219.573 232.061 219.573 233.494 219.573 235.183 219.368 235.439 217.832 235.951 216.655 236.309 215.478 236.36 214.352 236.053 213.431 235.797 212.305 235.695 211.895 235.797 211.281 236.002 211.23 235.951 211.844 235.542 212.254 235.234 213.175 235.234 214.25 235.542 215.427 235.849 216.348 235.797 217.065 235.439 218.498 234.62 218.088 234.416 214.915 234.16 211.844 233.955 210.872 234.467 210.872 236.258 210.872 237.435 210.36 237.845 209.694 237.128ZM210.565 233.597C210.718 233.187 210.667 232.982 210.36 233.136 210.053 233.29 209.848 233.648 209.848 233.955 209.848 234.671 210.206 234.518 210.565 233.597Z" fill="#FA02C3" transform="matrix(1 0 0 -1.00206 0 288.875)"/><path d="M232.112 236.616C231.293 236.156 230.372 235.49 230.167 235.132 229.911 234.62 228.581 234.416 226.073 234.364 222.592 234.313 222.541 234.262 224.691 233.904 225.97 233.648 228.018 233.699 229.297 234.006 230.577 234.313 232.01 234.569 232.522 234.62 233.545 234.671 235.286 237.486 234.262 237.486 233.904 237.435 232.982 237.077 232.112 236.616Z" fill="#FA02C3" transform="matrix(1 0 0 -1.00206 0 288.875)"/><path d="M246.904 236.053C246.546 235.797 246.546 235.388 246.955 234.62 247.365 233.75 247.723 233.648 248.644 233.955 249.719 234.364 250.282 235.951 249.31 235.951 249.054 235.951 248.542 236.053 248.132 236.207 247.774 236.36 247.211 236.258 246.904 236.053Z" fill="#FA02C3" transform="matrix(1 0 0 -1.00206 0 288.875)"/><path d="M179.139 235.183C179.139 234.671 178.883 234.518 178.524 234.723 178.166 234.927 178.115 234.876 178.32 234.518 178.883 233.648 178.064 233.801 176.989 234.774 176.477 235.234 176.068 235.388 176.068 235.081 176.068 234.518 173.969 234.62 172.894 235.234 172.382 235.542 172.382 235.439 172.945 234.774 173.304 234.313 174.174 233.904 174.839 233.904 175.505 233.904 176.631 233.648 177.347 233.29 178.473 232.778 178.78 232.829 179.19 233.443 179.497 233.955 179.65 233.955 179.65 233.545 179.65 232.829 180.981 232.624 181.339 233.29 181.442 233.494 181.032 234.16 180.367 234.825 179.394 235.746 179.139 235.797 179.139 235.183Z" fill="#FA02C3" transform="matrix(1 0 0 -1.00206 0 288.875)"/><path d="M196.899 233.034C196.694 232.88 196.541 232.164 196.541 231.447 196.541 230.679 196.182 230.116 195.517 229.963 194.954 229.809 194.493 229.4 194.493 229.041 194.493 228.018 192.958 227.659 192.6 228.581 192.395 229.195 192.19 229.246 191.883 228.734 191.576 228.222 191.32 228.222 190.757 228.683 190.194 229.195 189.887 229.144 189.324 228.478 188.71 227.711 188.761 227.659 189.733 227.967 190.501 228.222 191.166 228.018 191.883 227.301 192.497 226.687 193.214 226.278 193.521 226.38 193.828 226.431 194.289 225.97 194.544 225.356 195.107 223.872 194.647 223.872 193.163 225.254L191.985 226.329 190.603 225.254C189.836 224.691 189.426 224.179 189.682 224.179 189.938 224.179 189.733 223.821 189.17 223.411 188.607 223.002 188.351 222.336 188.505 221.876 188.812 221.108 188.454 220.955 186.56 221.057L185.536 221.108 186.56 220.647C187.635 220.187 188.403 220.443 190.143 221.825L191.166 222.644 190.143 222.336C189.17 222.081 189.17 222.081 189.989 222.797 190.501 223.207 190.757 223.667 190.552 223.821 190.399 224.026 190.655 224.179 191.218 224.179 192.036 224.179 192.088 224.281 191.422 224.691 190.808 225.1 190.859 225.203 191.781 225.203 192.395 225.203 192.958 224.947 193.06 224.589 193.163 224.281 193.726 223.974 194.289 223.923 194.8 223.923 195.722 223.616 196.285 223.258 197.257 222.695 197.257 222.644 196.08 222.797 195.21 222.848 194.852 222.592 194.698 221.876 194.596 220.955 194.647 220.955 195.159 221.671 195.517 222.132 196.029 222.388 196.387 222.285 196.694 222.183 197.104 222.336 197.308 222.592 197.462 222.9 198.281 223.155 199.1 223.155L200.533 223.155 199.714 225.356C199.253 226.533 198.895 227.557 198.895 227.557 198.844 227.608 198.332 227.813 197.718 227.967 196.95 228.222 196.541 228.12 196.541 227.762 196.541 227.455 196.796 227.352 197.052 227.506 197.359 227.659 197.564 227.557 197.564 227.301 197.564 226.431 196.796 226.636 195.875 227.659 194.749 228.888 194.8 229.297 196.029 229.297 196.592 229.297 197.052 229.553 197.052 229.809 197.052 230.116 197.359 230.321 197.769 230.321 198.485 230.321 199.1 231.396 199.1 232.675 199.1 233.392 197.513 233.699 196.899 233.034ZM198.485 232.317C198.383 232.01 198.076 231.805 197.82 231.805 197.564 231.805 197.257 232.01 197.155 232.317 197.052 232.624 197.359 232.88 197.82 232.88 198.281 232.88 198.588 232.624 198.485 232.317ZM195.517 226.789C196.131 225.612 196.182 225.203 195.67 225.203 195.415 225.203 195.005 225.766 194.647 226.482 193.981 227.967 194.698 228.222 195.517 226.789ZM199.1 225.1C199.1 224.64 198.895 224.128 198.639 223.974 198.025 223.565 196.233 225.049 196.694 225.561 196.95 225.766 197.462 225.51 197.871 224.998 198.281 224.435 198.588 224.23 198.588 224.537 198.588 224.896 198.383 225.254 198.076 225.459 197.82 225.612 197.769 226.124 197.922 226.533 198.178 227.199 198.281 227.199 198.639 226.636 198.895 226.278 199.1 225.561 199.1 225.1Z" fill="#FA02C3" transform="matrix(1 0 0 -1.00206 0 288.875)"/><path d="M189.426 232.164C188.966 231.601 189.119 231.549 190.194 231.754 191.422 231.959 191.525 231.856 191.269 230.884 191.115 230.321 191.218 229.809 191.473 229.809 192.139 229.809 192.036 231.549 191.32 232.266 190.552 233.034 190.143 233.034 189.426 232.164Z" fill="#FA02C3" transform="matrix(1 0 0 -1.00206 0 288.875)"/><path d="M180.418 231.038C180.418 230.116 180.623 229.809 181.237 229.963 183.233 230.475 183.233 229.4 181.237 228.478 179.65 227.711 179.292 227.352 179.65 226.738 180.06 226.073 180.162 226.124 180.162 226.892 180.162 227.506 180.572 227.762 181.595 227.762 182.67 227.762 182.824 227.659 182.209 227.25 181.186 226.585 182.261 226.585 184.001 227.25 184.717 227.506 185.28 228.069 185.178 228.376 185.127 228.734 185.383 229.604 185.741 230.219 186.099 230.884 186.253 231.549 186.099 231.754 185.946 231.908 185.792 231.754 185.792 231.447 185.792 230.782 184.257 231.242 183.591 232.061 183.335 232.419 183.233 232.164 183.387 231.498 183.694 230.167 182.875 229.911 182.363 231.14 182.107 231.805 182.005 231.805 181.646 231.242 181.288 230.73 181.186 230.782 181.186 231.498 181.186 231.959 181.032 232.368 180.828 232.368 180.572 232.368 180.418 231.805 180.418 231.038ZM184.82 229.86C184.513 229.348 184.41 228.785 184.564 228.632 184.717 228.478 184.615 228.222 184.308 228.018 183.694 227.659 183.489 229.911 184.103 230.475 184.82 231.191 185.28 230.782 184.82 229.86Z" fill="#FA02C3" transform="matrix(1 0 0 -1.00206 0 288.875)"/><path d="M178.473 230.27C178.831 229.911 179.241 229.758 179.394 229.911 179.548 230.065 179.292 230.372 178.78 230.526 178.064 230.833 178.013 230.782 178.473 230.27Z" fill="#FA02C3" transform="matrix(1 0 0 -1.00206 0 288.875)"/><path d="M243.935 230.475C243.475 230.014 243.577 228.274 244.038 228.274 244.243 228.274 244.754 228.581 245.113 228.939 245.727 229.451 245.778 229.4 245.471 228.581 245.215 227.762 245.266 227.711 245.932 228.274 246.443 228.683 246.699 228.734 246.699 228.325 246.699 228.018 246.955 227.762 247.262 227.762 247.569 227.762 247.723 228.018 247.621 228.376 247.365 229.144 244.345 230.884 243.935 230.475Z" fill="#FA02C3" transform="matrix(1 0 0 -1.00206 0 288.875)"/><path d="M185.69 227.301C184.973 226.431 185.025 226.38 186.611 226.431 188.556 226.482 188.966 227.25 187.43 227.813 186.765 228.069 186.202 227.864 185.69 227.301Z" fill="#FA02C3" transform="matrix(1 0 0 -1.00206 0 288.875)"/><path d="M222.234 225.663C221.466 224.486 220.34 224.435 217.884 225.459 216.502 226.022 215.99 226.073 215.836 225.561 215.632 225.1 215.478 225.1 215.12 225.561 214.403 226.585 211.691 225.612 211.486 224.281 211.383 223.667 211.025 223.104 210.718 223.104 210.36 223.053 209.439 223.002 208.568 222.951 207.749 222.9 206.572 222.695 205.958 222.49 205.19 222.234 204.883 222.336 204.883 222.9 204.883 223.36 205.395 223.667 206.214 223.667 207.289 223.667 207.391 223.77 206.777 224.179 206.265 224.486 206.214 224.691 206.675 224.691 206.982 224.691 207.289 225.1 207.289 225.561 207.289 226.226 207.135 226.278 206.675 225.817 205.958 225.1 204.525 224.998 204.986 225.715 205.549 226.636 204.781 226.278 203.706 225.1 203.143 224.486 202.682 223.565 202.682 223.053 202.682 222.388 202.273 222.132 201.198 222.132 196.848 222.132 193.367 218.907 192.19 213.687 191.832 212.305 191.781 212.254 191.422 213.175 191.166 213.738 191.115 214.761 191.218 215.478 191.32 216.195 191.115 215.836 190.706 214.71 190.347 213.584 189.938 212.919 189.836 213.226 189.58 213.84 186.355 216.246 185.178 216.655 183.643 217.218 184.154 216.297 186.099 215.069 187.123 214.403 187.84 213.789 187.737 213.687 187.43 213.38 184.769 214.045 185.025 214.454 185.127 214.659 184.717 214.71 184.103 214.608 182.721 214.352 180.418 216.143 180.981 217.065 181.186 217.474 181.135 217.525 180.776 217.321 180.418 217.116 180.162 217.269 180.162 217.73 180.162 218.191 179.957 218.549 179.702 218.549 178.934 218.549 178.729 221.108 179.446 221.518 179.906 221.773 179.957 222.132 179.65 222.644 178.985 223.718 178.422 222.9 178.422 220.903 178.422 219.061 180.009 214.966 180.776 214.966 180.981 214.966 181.186 214.659 181.186 214.25 181.186 213.84 180.06 213.328 178.013 212.919 168.8 211.128 160.303 207.238 152.319 201.249 147.354 197.513 138.704 189.221 138.704 188.249 138.704 187.584 141.11 185.28 141.775 185.28 142.031 185.28 142.85 185.843 143.669 186.509 144.437 187.123 145.358 187.788 145.614 187.891 146.075 188.095 150.476 190.91 153.547 192.958 154.878 193.879 157.386 195.056 164.091 197.974 166.087 198.844 169.977 199.97 172.894 200.482 175.76 200.942 178.115 201.556 178.115 201.761 178.115 201.966 177.705 202.427 177.194 202.785 176.375 203.399 174.02 206.777 174.02 207.391 174.02 207.494 175.146 207.545 176.528 207.442 177.961 207.289 179.19 207.442 179.394 207.749 179.804 208.466 181.698 208.466 181.698 207.801 181.698 207.494 182.261 207.033 182.977 206.777 183.694 206.521 184.206 206.009 184.154 205.651 184.052 205.293 184.461 204.986 185.025 204.934 185.588 204.934 186.458 204.73 187.021 204.474 187.584 204.218 188.095 204.269 188.3 204.627 188.505 204.934 188.914 205.037 189.324 204.781 189.836 204.474 189.58 204.218 188.505 204.013 184.461 203.092 182.926 197.667 185.28 192.241 186.304 189.733 188.863 186.918 189.733 187.174 190.04 187.277 190.45 187.123 190.655 186.867 191.064 186.099 193.623 186.151 194.391 186.918 194.698 187.225 195.107 187.379 195.261 187.225 195.875 186.611 192.19 184.871 190.808 185.127 189.784 185.332 189.324 185.127 188.914 184.308 188.505 183.591 187.788 183.233 186.662 183.182 185.332 183.182 185.178 183.08 186.048 182.721 186.969 182.363 186.969 182.312 185.69 181.954 184.871 181.749 184.257 181.391 184.257 181.083 184.257 180.828 184.001 180.776 183.643 180.981 183.284 181.186 183.233 181.135 183.438 180.725 183.643 180.418 183.489 180.06 183.131 179.906 182.772 179.753 182.414 179.036 182.363 178.32L182.312 176.989 183.233 178.473C184.308 180.213 186.662 182.209 187.635 182.209 188.607 182.209 188.556 181.749 187.481 180.469 186.765 179.65 186.918 179.702 187.942 180.623 188.71 181.288 189.631 181.698 190.04 181.544 190.399 181.391 191.013 181.698 191.32 182.261 191.832 183.028 191.781 183.131 191.013 182.926 190.296 182.67 190.245 182.721 190.91 183.182 191.473 183.591 191.985 183.335 193.06 182.005 193.828 181.032 195.056 180.111 195.773 179.957 196.489 179.753 197.001 179.446 196.848 179.19 196.694 178.985 198.127 178.831 200.021 178.883 202.734 178.934 204.116 179.292 206.521 180.572 208.21 181.442 210.002 182.465 210.565 182.875 211.486 183.54 211.486 183.643 210.616 184.973 209.899 186.099 209.797 186.611 210.257 187.584 210.923 189.017 211.332 189.068 214.096 188.3 215.632 187.891 216.553 187.942 218.6 188.607 219.982 189.068 221.108 189.733 221.057 190.04 220.852 191.729 221.773 192.241 226.329 193.214 227.813 193.521 228.837 192.6 227.762 191.934 227.301 191.627 227.762 191.218 229.195 190.501 231.856 189.221 232.01 189.989 229.604 192.497L227.864 194.34 229.553 195.21C230.475 195.722 231.447 196.643 231.754 197.308 232.522 198.946 235.797 199.663 236.77 198.383 237.077 197.922 237.282 197.052 237.128 196.541 236.668 194.903 237.538 195.363 240.046 198.178L242.4 200.84 241.991 203.655C241.735 205.549 241.837 207.084 242.246 208.21 242.707 209.643 242.656 210.155 241.837 211.691 241.069 213.175 240.66 213.431 239.687 213.175 238.357 212.868 238.152 213.482 239.278 214.454 239.841 214.915 240.046 216.195 240.046 219.266 240.046 223.923 240.404 224.896 241.888 224.333 242.758 224.026 242.809 224.077 242.042 224.793 241.581 225.254 240.66 225.561 239.943 225.561 238.817 225.459 238.715 225.305 239.124 224.537 239.38 224.026 239.534 222.9 239.431 221.978 239.227 219.931 237.998 219.829 237.077 221.722 236.668 222.541 235.849 223.309 235.03 223.463 234.262 223.667 233.29 224.077 232.88 224.435 232.471 224.844 231.191 225.305 230.065 225.459L228.018 225.868 229.195 224.844C229.809 224.281 230.321 223.616 230.321 223.36 230.321 223.155 230.065 223.207 229.707 223.565 228.632 224.64 227.659 224.281 228.683 223.258 229.144 222.746 229.656 222.388 229.758 222.49 230.219 222.848 232.982 217.832 233.238 216.092 233.648 213.84 232.624 214.25 232.164 216.553 232.01 217.423 231.498 218.907 231.038 219.829 229.656 222.746 224.691 224.026 220.852 222.439 219.88 222.029 219.061 221.825 219.061 222.029 219.061 222.951 222.081 224.077 224.333 224.077 225.715 224.077 226.943 224.23 227.148 224.384 227.301 224.537 226.585 224.691 225.561 224.691 224.23 224.691 223.667 224.896 223.667 225.407 223.667 226.636 222.9 226.738 222.234 225.663ZM210.872 220.033C210.872 219.777 211.179 219.624 211.537 219.726 211.895 219.777 212.151 219.266 212.151 218.344 212.1 216.553 211.128 215.99 210.718 217.525 210.565 218.088 210.206 218.549 209.899 218.549 209.183 218.549 209.183 217.679 209.848 217.269 210.155 217.116 210.36 216.502 210.36 215.939 210.36 214.403 209.541 215.171 208.108 217.986L206.879 220.494 208.876 220.494C209.95 220.545 210.872 220.34 210.872 220.033ZM217.269 219.061C218.14 218.14 218.14 217.986 217.372 217.167 216.962 216.655 216.553 216.092 216.502 215.888 216.246 213.891 215.734 214.096 215.171 216.297 214.761 218.037 214.71 219.01 215.069 219.47 215.785 220.34 216.195 220.238 217.269 219.061ZM239.124 218.703C239.227 217.014 238.971 215.222 238.408 214.608 236.975 212.868 236.514 214.864 237.589 217.884 238.254 219.726 238.971 220.084 239.124 218.703ZM205.242 217.218C205.856 215.632 205.907 214.454 205.344 214.454 204.986 214.454 203.706 217.372 203.706 218.191 203.706 219.112 204.832 218.395 205.242 217.218ZM199.1 216.092C199.1 215.888 198.639 215.427 198.076 215.069 197.104 214.454 197.052 214.506 197.667 215.478 198.332 216.502 199.1 216.86 199.1 216.092ZM202.427 214.198C202.887 213.175 203.194 212.151 203.092 211.844 202.99 211.537 202.427 212.356 201.761 213.635 201.147 214.915 200.84 215.99 201.096 215.99 201.352 215.99 201.915 215.171 202.427 214.198ZM208.722 214.71C208.568 214.557 208.261 214.813 208.108 215.324 207.801 216.041 207.852 216.092 208.364 215.632 208.722 215.273 208.876 214.864 208.722 214.71ZM224.179 215.478C224.179 215.222 224.589 214.966 225.049 214.966 225.51 214.966 225.715 214.813 225.561 214.608 225.356 214.454 225.612 213.84 226.073 213.328 226.841 212.509 226.841 212.254 226.226 211.895 225.356 211.332 223.667 212.817 224.077 213.84 224.179 214.147 224.026 214.454 223.718 214.454 223.411 214.454 223.155 214.813 223.155 215.222 223.155 215.632 223.411 215.99 223.667 215.99 223.974 215.99 224.179 215.785 224.179 215.478ZM209.336 213.738C209.336 213.584 209.131 213.328 208.824 213.175 208.568 213.021 208.312 213.124 208.312 213.38 208.312 213.687 208.568 213.943 208.824 213.943 209.131 213.943 209.336 213.84 209.336 213.738ZM233.443 211.742C234.723 210.667 234.723 210.513 234.211 207.801 233.904 206.265 233.187 204.116 232.624 203.092 231.549 201.198 227.352 197.308 226.841 197.82 226.687 197.974 227.045 198.434 227.659 198.895 228.274 199.304 228.785 200.123 228.785 200.686 228.785 201.249 229.348 202.58 230.014 203.655 231.703 206.316 232.368 208.927 231.856 211.128 231.396 213.226 231.652 213.328 233.443 211.742ZM181.237 211.332C183.233 210.923 184.359 210.257 185.639 208.927 186.56 207.954 187.225 207.033 187.123 206.879 186.969 206.777 185.895 207.135 184.666 207.801 183.489 208.415 181.493 209.029 180.265 209.131 177.654 209.387 174.89 211.128 176.426 211.537 177.961 211.946 178.473 211.895 181.237 211.332ZM220.238 208.415C221.825 206.777 223.104 201.915 222.183 200.993 221.773 200.584 221.62 200.635 221.62 201.147 221.62 201.505 221.466 201.659 221.313 201.505 220.955 201.198 219.061 203.041 219.061 203.655 219.061 203.808 219.266 204.679 219.521 205.6 219.88 206.931 219.88 207.186 219.266 206.931 218.856 206.777 218.549 206.879 218.549 207.084 218.549 207.34 218.395 208.057 218.242 208.722 217.832 210.257 218.6 210.155 220.238 208.415ZM192.446 208.312C192.446 208.057 192.088 207.801 191.678 207.801 191.269 207.801 190.91 207.442 190.91 207.033 190.91 206.623 191.166 206.265 191.422 206.265 191.729 206.265 191.934 206.009 191.934 205.702 191.934 204.576 195.107 199.611 195.619 199.919 195.926 200.123 195.926 200.43 195.568 200.789 195.261 201.096 195.005 201.71 195.056 202.171 195.056 202.631 195.159 202.734 195.363 202.324 195.517 201.864 195.875 201.864 196.796 202.478 198.588 203.655 199.611 203.041 201.864 199.56 202.938 197.871 204.73 195.824 205.805 195.005 207.033 194.135 207.596 193.418 207.289 193.214 206.982 193.009 206.368 193.163 205.907 193.572 204.883 194.391 199.919 196.541 199.663 196.233 199.509 196.131 199.97 195.466 200.635 194.749 201.301 194.033 201.71 193.367 201.608 193.265 201.505 193.111 200.021 193.572 198.383 194.237 193.47 196.233 189.938 200.328 190.706 203.143 191.166 204.832 191.166 205.293 190.706 206.419 190.45 206.931 190.552 207.596 190.91 208.057 191.627 208.927 192.446 209.08 192.446 208.312ZM208.927 208.005C208.312 207.596 207.801 206.982 207.801 206.675 207.801 206.316 208.159 206.419 208.722 206.879 209.746 207.749 212.407 208.005 212.407 207.238 212.407 206.982 212.561 206.828 212.817 206.931 213.021 207.084 213.226 206.214 213.277 205.037L213.38 202.938 212.561 204.627C211.639 206.368 210.872 206.777 210.872 205.446 210.872 205.037 210.616 204.832 210.36 204.986 210.053 205.139 209.387 205.139 208.824 204.986 208.005 204.73 207.801 204.218 207.801 202.529 207.801 200.942 207.647 200.584 207.289 201.147 206.623 202.171 206.623 205.242 207.289 205.242 207.647 205.242 207.698 205.549 207.34 206.112 206.982 206.777 207.135 207.238 207.903 207.903 208.517 208.415 209.234 208.824 209.541 208.824 209.848 208.824 209.541 208.466 208.927 208.005ZM197.974 204.269C198.537 203.962 198.485 203.757 197.769 203.501 197.308 203.348 196.796 203.297 196.643 203.45 196.489 203.604 196.694 203.706 197.104 203.706 197.667 203.706 197.667 203.808 197.052 204.218 196.643 204.474 196.541 204.73 196.796 204.73 197.104 204.73 197.615 204.525 197.974 204.269ZM200.482 203.399C200.328 203.245 199.867 203.194 199.509 203.348 199.1 203.501 199.253 203.655 199.816 203.655 200.379 203.706 200.686 203.553 200.482 203.399ZM208.159 198.997C208.005 198.588 207.852 198.741 207.852 199.304 207.801 199.867 207.954 200.174 208.108 199.97 208.261 199.816 208.312 199.356 208.159 198.997ZM210.309 196.08C210.667 195.415 210.616 195.159 210.104 195.159 209.694 195.159 209.49 195.363 209.643 195.619 209.797 195.875 209.643 196.438 209.234 196.899 208.773 197.513 208.773 197.667 209.183 197.359 209.541 197.155 210.053 196.592 210.309 196.08ZM197.667 192.344C196.848 191.371 193.981 189.784 193.981 190.296 193.981 190.859 195.466 192.19 196.541 192.6 197.871 193.06 198.23 193.009 197.667 192.344ZM199.407 188.658C200.789 188.249 202.785 187.788 203.86 187.635 204.883 187.43 205.753 187.021 205.753 186.714 205.753 186.355 206.009 186.406 206.521 186.816 206.931 187.123 207.545 187.328 207.852 187.225 208.21 187.123 207.647 186.611 206.623 186.151 204.167 184.973 199.458 185.434 197.974 187.021 197.462 187.635 196.796 188.147 196.489 188.147 194.954 188.351 194.852 188.454 195.773 188.863 196.336 189.119 196.796 189.324 196.848 189.324 196.848 189.375 198.025 189.068 199.407 188.658Z" fill="#FA02C3" transform="matrix(1 0 0 -1.00206 0 288.875)"/><path d="M234.825 225.407C232.931 224.435 232.982 224.128 234.927 224.844 235.797 225.152 236.463 225.612 236.463 225.817 236.463 226.329 236.463 226.329 234.825 225.407Z" fill="#FA02C3" transform="matrix(1 0 0 -1.00206 0 288.875)"/><path d="M183.898 224.281C183.847 223.155 183.898 223.053 184.359 223.872 184.666 224.384 184.666 224.998 184.461 225.203 184.206 225.459 183.95 225.049 183.898 224.281Z" fill="#FA02C3" transform="matrix(1 0 0 -1.00206 0 288.875)"/><path d="M186.611 223.974C185.69 223.207 185.383 222.644 185.741 222.439 186.304 222.081 186.867 222.49 188.3 224.333 189.273 225.561 188.351 225.407 186.611 223.974Z" fill="#FA02C3" transform="matrix(1 0 0 -1.00206 0 288.875)"/><path d="M267.223 224.384C267.223 223.77 267.582 222.951 268.094 222.592 268.861 221.978 268.913 221.978 268.401 222.644 268.042 223.053 267.684 223.872 267.531 224.435 267.326 225.407 267.275 225.407 267.223 224.384Z" fill="#FA02C3" transform="matrix(1 0 0 -1.00206 0 288.875)"/><path d="M258.011 223.002C257.345 221.927 257.396 221.927 258.267 222.746 258.778 223.258 259.085 223.77 258.932 223.872 258.778 224.026 258.369 223.616 258.011 223.002Z" fill="#FA02C3" transform="matrix(1 0 0 -1.00206 0 288.875)"/><path d="M260.007 222.695C260.007 222.388 260.211 222.029 260.519 221.876 260.826 221.722 260.877 221.927 260.723 222.336 260.365 223.258 260.007 223.411 260.007 222.695Z" fill="#FA02C3" transform="matrix(1 0 0 -1.00206 0 288.875)"/><path d="M237.538 221.825C237.538 221.262 237.691 221.108 237.845 221.518 237.998 221.876 237.947 222.336 237.794 222.49 237.64 222.695 237.486 222.388 237.538 221.825Z" fill="#FA02C3" transform="matrix(1 0 0 -1.00206 0 288.875)"/><path d="M191.422 219.112C190.603 217.577 190.808 217.269 191.934 218.293 193.009 219.266 193.265 220.084 192.446 220.084 192.19 220.084 191.729 219.624 191.422 219.112Z" fill="#FA02C3" transform="matrix(1 0 0 -1.00206 0 288.875)"/><path d="M182.209 218.14C182.209 217.525 183.182 216.809 183.54 217.167 183.643 217.269 183.438 217.679 182.977 218.037 182.517 218.447 182.209 218.447 182.209 218.14Z" fill="#FA02C3" transform="matrix(1 0 0 -1.00206 0 288.875)"/><path d="M251.05 214.608C251.203 213.072 251.408 212.919 252.688 213.226 254.377 213.687 253.763 215.58 251.869 215.734 251.152 215.785 250.947 215.529 251.05 214.608Z" fill="#FA02C3" transform="matrix(1 0 0 -1.00206 0 288.875)"/><path d="M264.613 213.84C264.613 212.714 265.483 211.742 266.097 212.1 266.507 212.356 266.507 212.765 266.149 213.482 265.534 214.557 264.613 214.813 264.613 213.84Z" fill="#FA02C3" transform="matrix(1 0 0 -1.00206 0 288.875)"/><path d="M65.7694 212.663C53.025 210.257 41.4066 201.864 34.0875 189.733 31.0677 184.717 27.8432 175.453 26.4101 167.571 25.1306 160.918 25.0794 159.945 25.54 154.264 26.4101 143.669 28.2527 136.811 33.115 125.704 38.8987 112.397 53.4345 96.4789 75.9547 78.6674 79.0769 76.2106 81.9431 73.8563 82.3014 73.498 82.8644 72.935 82.199 70.9389 78.565 62.1355 76.1595 56.2495 73.8563 50.6706 73.4468 49.7493 72.3208 47.2926 72.4743 47.0878 74.9311 47.0878 77.5414 47.0878 76.9784 46.2177 81.8919 58.0921 86.396 68.9939 86.6519 69.6081 87.0101 69.6081 87.1637 69.6081 87.9826 69.0451 88.8527 68.3797 89.6716 67.7144 93.2032 64.8481 96.7348 62.0331 100.266 59.2181 104.617 55.7377 106.459 54.2534 111.066 50.5682 113.881 47.8044 120.33 40.7412 126.318 34.1899 129.543 28.8669 131.334 22.4691L132.204 19.2958 132.921 22.0084C133.996 26.3078 135.787 30.3 138.346 34.0875 140.598 37.4655 141.673 38.6427 149.555 46.0642L153.035 49.2887 155.185 47.0878C158 44.324 161.02 42.2255 164.705 40.5877 171.154 37.7215 171.308 37.7215 184.001 38.0797 199.816 38.5404 202.171 38.7451 202.171 39.9223 202.171 40.5877 201.045 41.2019 197.462 42.3279 191.883 44.0681 192.753 42.9421 187.021 56.5566 182.926 66.3836 173.508 88.5968 166.548 104.924 158.461 123.964 150.579 142.645 143.823 158.614 140.086 167.469 136.504 175.3 135.941 175.965 135.326 176.682 133.944 178.371 132.818 179.702 131.692 181.032 129.594 183.796 128.161 185.895 123.964 191.883 119.46 196.387 112.908 201.249 109.53 203.706 106.511 205.753 106.152 205.753 105.845 205.753 105.231 206.112 104.873 206.572 104.054 207.545 99.7546 209.541 95.4552 210.923 88.3409 213.226 73.3956 214.096 65.7694 212.663ZM95.1993 199.407C100.318 198.127 103.389 197.001 107.995 194.8 113.932 191.934 121.302 187.174 124.988 183.745L127.495 181.442 123.452 171.461C121.2 165.985 117.208 156.209 114.546 149.709 111.885 143.26 105.333 127.393 100.062 114.444L90.3882 91.0024 92.1796 89.5181C93.152 88.7503 94.0733 88.2385 94.278 88.4432 94.6875 88.8527 98.5262 97.8608 105.129 113.881 110.656 127.24 110.247 126.216 112.806 132.255 113.983 135.07 115.212 137.425 115.468 137.527 115.723 137.63 117.003 135.07 118.334 131.897 119.665 128.775 122.172 122.838 123.913 118.743 125.653 114.649 128.263 108.456 129.747 104.924 131.232 101.392 135.685 90.8488 139.677 81.5336 143.669 72.1672 146.894 64.1316 146.894 63.6709 146.894 63.1591 144.846 60.7024 142.338 58.0921 139.472 55.1747 136.913 51.8478 135.378 49.2375 134.047 46.9343 132.818 45.1429 132.614 45.2453 132.409 45.3988 131.488 46.9855 130.566 48.828 129.645 50.6706 128.058 52.9226 127.035 53.8951 126.011 54.8164 123.759 57.1708 122.07 59.1669 118.59 63.1591 113.932 67.8679 110.554 70.8365 109.274 71.9113 106.971 74.0098 105.436 75.4429 101.699 78.9233 97.5537 82.4037 91.3606 87.3684 88.5456 89.5693 83.7345 93.6639 80.6123 96.4277 77.5414 99.1916 74.061 102.007 72.935 102.723 70.2735 104.412 53.7416 120.944 53.7416 121.968 53.7416 122.377 53.3833 122.991 52.9738 123.35 51.2848 124.732 46.0642 137.118 43.9145 144.795 42.4814 150.016 42.072 163.374 43.198 168.646 45.2453 178.32 47.2926 182.465 53.0762 188.812 62.852 199.56 78.7186 203.553 95.1993 199.407Z" fill="#FA02C3" transform="matrix(1 0 0 -1.00206 0 288.875)"/><path d="M261.645 209.234C261.389 208.876 260.979 208.005 260.775 207.289 260.416 206.163 260.467 206.112 261.133 206.675 261.593 207.033 262.054 207.903 262.208 208.568 262.464 210.002 262.361 210.104 261.645 209.234Z" fill="#FA02C3" transform="matrix(1 0 0 -1.00206 0 288.875)"/><path d="M261.03 205.242C261.03 204.986 261.389 204.73 261.849 204.73 262.259 204.73 262.464 204.986 262.31 205.242 262.156 205.549 261.798 205.753 261.491 205.753 261.235 205.753 261.03 205.549 261.03 205.242Z" fill="#FA02C3" transform="matrix(1 0 0 -1.00206 0 288.875)"/><path d="M179.139 204.064C180.06 203.041 183.233 202.324 183.233 203.092 183.233 203.348 182.721 203.706 182.107 203.86 181.442 204.013 180.367 204.32 179.65 204.525 178.473 204.832 178.422 204.781 179.139 204.064Z" fill="#FA02C3" transform="matrix(1 0 0 -1.00206 0 288.875)"/><path d="M251.05 203.706C251.203 203.45 251.101 203.092 250.794 202.938 249.975 202.427 251.152 201.198 252.227 201.403 252.688 201.505 253.251 201.608 253.507 201.608 254.07 201.659 253.967 203.092 253.353 203.45 252.483 204.013 250.743 204.167 251.05 203.706Z" fill="#FA02C3" transform="matrix(1 0 0 -1.00206 0 288.875)"/><path d="M242.963 197.155C242.144 196.285 240.506 195.466 239.073 195.056 237.077 194.544 236.36 194.033 235.286 192.395L233.904 190.347 235.03 188.812C236.412 186.969 236.923 186.969 238.766 188.863 239.585 189.733 240.557 190.296 240.865 190.194 241.837 189.836 243.68 191.422 244.447 193.265 245.522 195.824 245.369 196.182 243.526 195.824L241.837 195.517 243.321 196.848C244.089 197.564 244.652 198.23 244.55 198.332 244.447 198.485 243.68 197.922 242.963 197.155ZM244.14 193.418C244.14 192.855 241.428 190.347 241.12 190.655 241.018 190.808 241.274 191.32 241.735 191.832 242.246 192.344 242.605 193.316 242.605 193.981 242.605 194.954 242.707 195.005 243.372 194.493 243.782 194.135 244.14 193.674 244.14 193.418Z" fill="#FA02C3" transform="matrix(1 0 0 -1.00206 0 288.875)"/><path d="M265.637 190.194C265.637 189.836 266.2 189.375 266.916 189.273 267.633 189.119 268.196 189.068 268.196 189.119 268.196 189.221 267.633 189.631 266.916 190.092 265.893 190.757 265.637 190.808 265.637 190.194Z" fill="#FA02C3" transform="matrix(1 0 0 -1.00206 0 288.875)"/><path d="M242.605 188.351C239.841 187.84 242.042 187.123 245.42 187.481 247.518 187.686 248.235 187.584 248.44 187.021 248.593 186.611 249.31 186.048 249.975 185.741 250.692 185.383 251.357 184.769 251.459 184.308 251.613 183.745 251.715 183.847 251.766 184.564 251.818 185.229 251.101 186.304 250.026 187.277 248.132 188.914 246.597 189.17 242.605 188.351Z" fill="#FA02C3" transform="matrix(1 0 0 -1.00206 0 288.875)"/><path d="M219.829 186.304C219.675 186.048 219.777 185.792 220.033 185.792 220.34 185.792 220.596 185.588 220.596 185.28 220.596 184.717 218.344 184.052 216.758 184.103 216.195 184.154 216.706 183.745 217.935 183.182 219.163 182.67 220.033 182.005 219.88 181.8 219.726 181.544 219.931 181.339 220.34 181.339 220.903 181.339 221.108 181.954 221.108 183.284 221.108 184.308 221.262 185.536 221.415 185.997 221.773 186.918 220.34 187.174 219.829 186.304Z" fill="#FA02C3" transform="matrix(1 0 0 -1.00206 0 288.875)"/><path d="M226.278 186.099C225.919 185.69 225.766 184.257 225.919 182.568L226.124 179.753 224.486 180.009C223.207 180.213 222.695 180.06 222.49 179.446 221.927 178.013 222.644 177.091 224.281 177.091 225.152 177.091 226.687 176.835 227.711 176.528 228.99 176.17 229.963 176.17 230.884 176.528 232.215 176.989 232.266 177.142 232.215 181.032 232.215 184.359 232.061 185.178 231.191 185.946 229.963 186.969 227.096 187.123 226.278 186.099Z" fill="#FA02C3" transform="matrix(1 0 0 -1.00206 0 288.875)"/><path d="M181.493 185.639C179.855 184.461 181.493 182.517 183.643 183.08 184.359 183.233 184.564 183.643 184.359 184.41 183.898 186.253 182.926 186.662 181.493 185.639Z" fill="#FA02C3" transform="matrix(1 0 0 -1.00206 0 288.875)"/><path d="M261.184 185.946C260.826 185.792 260.519 185.332 260.519 184.82 260.519 184.359 260.211 183.643 259.904 183.284 259.546 182.875 259.495 182.721 259.751 182.875 260.058 183.028 260.621 182.977 261.03 182.721 262.003 182.107 263.078 183.08 263.078 184.513 263.078 185.741 262.259 186.304 261.184 185.946Z" fill="#FA02C3" transform="matrix(1 0 0 -1.00206 0 288.875)"/><path d="M211.895 182.465 210.718 181.186 212.202 181.135C213.021 181.135 214.506 181.032 215.478 180.879 218.447 180.572 218.907 181.083 217.014 182.465 214.813 184.103 213.431 184.103 211.895 182.465Z" fill="#FA02C3" transform="matrix(1 0 0 -1.00206 0 288.875)"/><path d="M252.176 183.233C252.022 182.824 251.818 181.391 251.715 180.06 251.562 177.808 251.664 177.603 252.739 177.603 253.814 177.603 253.865 177.757 253.558 179.548 252.892 182.926 252.483 184.103 252.176 183.233Z" fill="#FA02C3" transform="matrix(1 0 0 -1.00206 0 288.875)"/><path d="M240.711 182.721C238.049 182.158 236.002 181.135 234.671 179.65L233.648 178.473 234.927 178.934C235.644 179.19 237.947 179.394 240.046 179.394 243.014 179.394 244.396 179.139 246.136 178.217 247.877 177.347 248.542 177.245 248.849 177.705 249.566 178.934 249.258 180.623 248.03 181.902 246.751 183.335 244.908 183.54 240.711 182.721Z" fill="#FA02C3" transform="matrix(1 0 0 -1.00206 0 288.875)"/><path d="M264.562 181.339C263.897 180.52 263.692 180.213 264.101 180.572 265.125 181.442 265.893 181.339 265.125 180.418 264.408 179.548 264.971 179.394 266.097 180.111 266.712 180.469 266.712 180.776 266.251 181.339 265.893 181.698 265.79 182.209 265.995 182.363 266.149 182.568 266.2 182.721 266.046 182.721 265.944 182.721 265.279 182.107 264.562 181.339Z" fill="#FA02C3" transform="matrix(1 0 0 -1.00206 0 288.875)"/><path d="M259.751 181.749C259.597 181.442 258.778 181.186 257.908 181.186 257.089 181.186 256.424 180.93 256.424 180.623 256.424 180.316 256.885 180.162 257.448 180.316 258.369 180.52 258.369 180.469 257.704 179.446 256.987 178.371 257.038 178.217 258.164 177.654 258.83 177.245 259.648 177.091 259.904 177.296 260.211 177.449 260.57 177.296 260.672 176.989 260.877 176.528 260.979 176.528 260.979 176.938 261.03 177.245 260.723 177.859 260.365 178.217 259.956 178.576 259.802 179.241 259.904 179.65 260.109 180.213 259.802 180.111 258.932 179.394 258.062 178.678 258.113 178.831 259.188 180.06 260.007 180.93 260.57 181.8 260.416 182.005 260.263 182.158 259.956 182.056 259.751 181.749Z" fill="#FA02C3" transform="matrix(1 0 0 -1.00206 0 288.875)"/><path d="M175.965 180.981C174.839 180.162 174.839 179.957 175.863 178.934 176.835 177.91 177.347 177.91 178.32 178.934 178.934 179.548 178.985 179.957 178.627 180.725 178.013 181.851 177.194 181.954 175.965 180.981Z" fill="#FA02C3" transform="matrix(1 0 0 -1.00206 0 288.875)"/><path d="M266.66 179.753C265.586 178.678 265.279 178.166 265.944 178.524 266.916 179.036 267.019 178.985 266.763 177.808 266.609 176.835 266.865 176.17 267.889 175.249 268.605 174.532 269.476 174.123 269.731 174.276 270.039 174.43 270.243 174.481 270.243 174.327 270.243 174.174 269.731 173.816 269.168 173.457 268.298 172.997 267.94 173.048 267.582 173.56 267.172 174.123 267.121 174.071 267.326 173.406 267.684 172.434 265.944 170.693 265.176 171.205 264.869 171.359 264.613 171.922 264.613 172.434 264.613 172.894 264.306 173.611 263.999 173.969 263.436 174.481 263.59 174.532 264.767 174.276 265.688 174.02 266.149 174.123 266.149 174.532 266.149 174.839 266.405 174.942 266.763 174.737 267.121 174.532 267.172 174.583 266.968 174.942 266.763 175.3 265.995 175.402 265.176 175.249 263.282 174.839 262.822 175.709 263.897 177.347L264.716 178.627 262.771 178.627C261.235 178.627 260.979 178.473 261.44 178.013 262.31 177.142 262.208 176.068 261.286 176.068 260.621 176.068 260.57 175.965 261.133 175.351 261.491 174.942 261.901 174.737 262.003 174.839 262.105 174.942 262.668 174.686 263.18 174.174 264.204 173.253 264.357 171.922 263.538 171.103 262.822 170.386 265.944 170.54 267.889 171.41 269.117 171.871 269.476 171.871 269.834 171.359 270.141 170.847 270.243 170.949 270.243 171.615 270.243 172.945 270.294 173.15 270.806 174.174 271.062 174.634 271.523 175.044 271.779 175.044 272.495 175.044 272.393 173.611 271.676 173.406 271.216 173.253 271.267 172.945 271.881 172.331 272.7 171.512 272.751 171.564 272.905 172.843L273.109 174.276 273.672 172.997C274.133 172.075 274.287 171.973 274.287 172.638 274.338 173.099 274.696 173.508 275.157 173.508 275.566 173.508 275.771 173.764 275.617 174.071 275.413 174.379 274.952 174.481 274.645 174.379 274.287 174.225 273.672 174.276 273.314 174.532 272.854 174.839 273.263 175.3 274.798 176.272 275.924 176.989 276.897 177.705 276.897 177.808 276.897 178.32 275.157 177.705 274.952 177.194 274.85 176.835 274.338 176.579 273.775 176.579 273.109 176.579 272.905 176.835 273.161 177.501 273.468 178.217 273.365 178.268 272.751 177.757 271.472 176.733 267.684 177.603 267.684 178.934 267.684 179.292 268.145 179.855 268.708 180.162 269.271 180.469 269.629 180.93 269.476 181.237 269.015 181.954 268.657 181.749 266.66 179.753ZM270.755 176.733C270.755 176.477 270.55 175.965 270.243 175.556 269.68 174.634 268.964 175.197 269.373 176.323 269.68 177.091 270.755 177.398 270.755 176.733Z" fill="#FA02C3" transform="matrix(1 0 0 -1.00206 0 288.875)"/><path d="M190.706 179.906C190.245 179.446 189.887 178.473 189.887 177.808 189.887 176.682 190.092 176.528 191.32 176.682 192.344 176.784 192.753 177.142 192.907 178.115 192.958 178.831 193.316 179.548 193.572 179.702 193.93 179.906 193.879 180.162 193.521 180.367 193.214 180.572 192.958 180.469 192.958 180.111 192.958 179.65 192.804 179.65 192.241 180.111 191.678 180.572 191.32 180.52 190.706 179.906Z" fill="#FA02C3" transform="matrix(1 0 0 -1.00206 0 288.875)"/><path d="M218.805 180.162C218.651 179.906 218.958 179.65 219.573 179.65 220.187 179.65 220.494 179.906 220.34 180.162 220.187 180.469 219.829 180.674 219.573 180.674 219.317 180.674 218.958 180.469 218.805 180.162Z" fill="#FA02C3" transform="matrix(1 0 0 -1.00206 0 288.875)"/><path d="M185.178 177.501C183.591 175.76 183.387 174.481 184.461 173.56 185.025 173.099 185.485 173.048 186.253 173.508 187.481 174.174 187.686 176.477 186.56 176.886 185.997 177.142 185.946 177.449 186.355 178.166 187.021 179.497 186.816 179.343 185.178 177.501Z" fill="#FA02C3" transform="matrix(1 0 0 -1.00206 0 288.875)"/><path d="M255.4 178.166C255.4 177.91 255.759 177.603 256.117 177.449 256.629 177.245 256.782 177.398 256.578 177.91 256.27 178.678 255.4 178.883 255.4 178.166Z" fill="#FA02C3" transform="matrix(1 0 0 -1.00206 0 288.875)"/><path d="M217.014 176.17C217.014 175.914 217.372 175.351 217.832 174.993 218.549 174.379 218.651 174.43 218.498 175.249 218.293 176.272 217.014 177.04 217.014 176.17Z" fill="#FA02C3" transform="matrix(1 0 0 -1.00206 0 288.875)"/><path d="M227.659 175.3C227.506 175.146 226.585 174.993 225.561 174.942 224.281 174.89 223.821 174.686 224.026 174.174 224.179 173.816 224.077 173.508 223.77 173.508 223.514 173.508 223.258 172.894 223.207 172.127 223.207 171.308 223.207 170.182 223.155 169.516 223.155 168.185 223.974 166.343 224.64 166.343 225.356 166.343 226.226 168.851 226.226 170.898 226.226 173.457 227.301 174.43 229.348 173.662 230.372 173.253 230.935 173.253 231.14 173.611 231.805 174.634 228.581 176.17 227.659 175.3Z" fill="#FA02C3" transform="matrix(1 0 0 -1.00206 0 288.875)"/><path d="M276.641 175.044C276.488 174.788 276.59 174.532 276.846 174.532 277.153 174.532 277.409 174.788 277.409 175.044 277.409 175.351 277.306 175.556 277.204 175.556 277.051 175.556 276.795 175.351 276.641 175.044Z" fill="#FA02C3" transform="matrix(1 0 0 -1.00206 0 288.875)"/><path d="M181.186 173.253C181.186 172.843 180.981 172.485 180.725 172.485 179.804 172.485 179.753 170.949 180.623 169.823 181.442 168.851 181.698 168.8 182.414 169.363 183.54 170.284 183.438 172.075 182.209 173.15 181.339 173.867 181.186 173.867 181.186 173.253Z" fill="#FA02C3" transform="matrix(1 0 0 -1.00206 0 288.875)"/><path d="M175.607 172.792C175.249 172.382 175.146 171.512 175.3 170.796 175.607 169.721 175.812 169.567 176.989 169.874 178.115 170.182 178.371 170.54 178.371 171.768 178.371 172.894 178.115 173.304 177.296 173.406 176.733 173.508 175.965 173.201 175.607 172.792Z" fill="#FA02C3" transform="matrix(1 0 0 -1.00206 0 288.875)"/><path d="M234.569 172.741C234.211 172.331 233.904 171.717 233.904 171.41 233.904 171.052 233.597 171.154 233.238 171.666 232.624 172.536 232.522 172.536 232.215 171.768 232.01 171.308 231.549 170.949 231.089 170.949 230.679 170.949 230.321 170.745 230.321 170.438 230.321 170.182 230.526 169.926 230.73 169.926 231.447 169.926 231.14 164.296 230.372 163.835 229.86 163.477 229.963 163.118 230.884 162.044 231.549 161.276 232.368 160.815 232.727 160.918 233.648 161.276 233.545 161.071 232.164 159.433L230.935 158.051 229.86 159.126C229.297 159.689 228.785 160.815 228.785 161.532 228.785 162.811 228.683 162.863 227.148 162.555 224.844 162.095 224.026 160.918 224.333 158.307 224.537 156.209 224.435 156.055 222.336 154.469 221.108 153.547 220.084 152.472 220.084 152.165 220.084 151.807 219.777 151.5 219.47 151.5 219.112 151.5 219.214 151.244 219.726 150.937 220.187 150.681 220.852 150.579 221.108 150.732 221.415 150.937 222.49 150.783 223.514 150.425 224.793 150.016 225.459 150.016 225.561 150.323 225.663 150.63 226.175 150.783 226.687 150.63 227.762 150.374 228.376 147.303 227.711 145.614 227.506 145.051 227.301 144.897 227.301 145.307 227.25 145.87 227.045 145.87 226.329 145.205 224.691 143.669 224.435 144.283 226.022 145.972 226.841 146.894 227.148 147.354 226.687 146.996 226.226 146.638 224.844 146.177 223.616 145.972 221.825 145.665 221.364 145.358 221.057 144.181 220.647 142.594 221.108 142.441 222.9 143.618 223.616 144.079 224.179 144.334 224.179 144.181 224.179 144.079 223.309 143.362 222.234 142.697 220.647 141.622 220.136 140.803 219.061 137.63 218.344 135.531 217.73 133.535 217.628 133.228 217.372 132.307 218.805 132.409 219.573 133.33 219.931 133.791 220.34 133.996 220.494 133.842 220.647 133.74 219.88 132.562 218.805 131.232 217.423 129.594 216.86 128.417 216.86 127.24 216.911 126.165 216.809 125.96 216.553 126.574 216.297 127.342 215.888 127.086 213.943 125.09L211.639 122.735 213.687 123.043C220.699 124.271 222.132 125.397 222.49 130.055 222.695 132.767 222.592 133.535 221.927 134.252 221.108 135.07 221.108 135.173 221.876 135.941 222.336 136.401 222.592 137.067 222.439 137.476 222.285 137.834 222.439 138.244 222.797 138.346 223.258 138.5 223.207 138.756 222.695 139.37 222.081 140.137 222.132 140.24 222.848 140.24 223.36 140.24 223.616 140.445 223.463 140.649 223.309 140.905 223.616 141.059 224.077 141.059 227.864 141.059 229.502 141.315 228.785 141.775 228.222 142.134 228.478 142.287 229.809 142.287 231.14 142.287 231.396 142.441 230.935 142.901 230.116 143.72 230.167 144.386 231.038 144.027 232.471 143.464 232.419 144.949 230.884 146.638 228.581 149.248 226.636 157.13 228.274 157.13 228.581 157.13 228.785 156.618 228.785 155.953 228.785 155.339 229.093 154.366 229.502 153.803 229.86 153.24 230.321 152.114 230.526 151.295 231.498 147.303 235.9 143.669 239.636 143.72 241.428 143.771 243.987 145.102 244.652 146.382 245.215 147.405 244.498 147.917 243.884 146.894 243.168 145.716 239.073 146.74 237.486 148.429 237.333 148.583 236.616 149.094 235.849 149.606 234.62 150.374 231.345 154.52 231.345 155.288 231.345 155.441 231.703 155.595 232.112 155.595 232.522 155.595 232.88 155.39 232.88 155.083 232.88 154.827 233.136 154.571 233.494 154.571 233.801 154.571 233.699 154.98 233.187 155.543 232.368 156.414 232.419 156.516 233.494 157.284 234.416 157.949 234.467 158.051 233.699 157.795 233.034 157.591 232.829 157.642 233.085 158.051 233.699 159.075 234.262 158.768 237.742 155.39 241.018 152.165 241.069 152.114 241.069 153.598 241.069 154.417 240.813 155.083 240.506 155.083 240.199 155.083 240.046 155.441 240.25 155.851 240.404 156.26 240.353 156.618 240.097 156.618 239.892 156.618 239.176 157.079 238.51 157.642 237.845 158.205 237.538 158.666 237.794 158.666 238.101 158.666 238.613 158.358 238.971 158.051 239.534 157.488 239.636 157.54 239.38 158.307 239.176 158.768 239.278 159.177 239.585 159.177 239.892 159.177 240.046 159.536 239.841 159.945 239.687 160.406 239.841 160.713 240.302 160.713 240.711 160.713 241.069 160.918 241.069 161.173 241.069 161.429 241.53 161.532 242.093 161.378 242.656 161.225 243.117 161.378 243.117 161.685 243.117 161.992 242.758 162.248 242.349 162.248 241.683 162.248 241.683 162.402 242.195 163.272 242.554 163.835 243.168 164.193 243.475 164.04 243.833 163.937 244.14 164.091 244.14 164.449 244.14 164.91 244.754 165.063 246.085 164.91 247.314 164.756 247.672 164.552 247.109 164.347 246.29 164.04 246.29 163.937 247.262 162.402L248.286 160.764 249.873 161.685C251.971 162.811 252.073 163.323 250.794 164.961 249.821 166.189 249.361 166.292 246.648 166.292 244.959 166.241 243.424 166.394 243.219 166.548 243.065 166.752 242.912 167.52 242.861 168.288 242.861 169.056 242.656 169.619 242.349 169.567 242.093 169.465 241.837 169.209 241.837 168.953 241.837 168.697 241.632 168.288 241.428 168.032 241.172 167.827 241.018 167.878 241.069 168.134 241.376 169.619 241.018 170.386 240.199 170.079 239.534 169.823 239.585 169.977 240.404 170.796 240.967 171.359 242.093 171.973 242.912 172.178 244.243 172.536 244.294 172.638 243.475 173.099 242.912 173.406 241.786 173.457 240.66 173.201 238.561 172.741 238.101 172.741 236.36 173.15 235.695 173.304 234.927 173.15 234.569 172.741ZM226.789 155.441C226.38 155.032 226.226 155.083 226.226 155.646 226.226 156.669 226.892 157.386 227.148 156.618 227.301 156.26 227.096 155.748 226.789 155.441ZM220.852 137.681C220.699 137.425 220.289 137.169 220.033 137.169 219.726 137.169 219.675 137.425 219.829 137.681 219.982 137.988 220.392 138.193 220.647 138.193 220.955 138.193 221.006 137.988 220.852 137.681Z" fill="#FA02C3" transform="matrix(1 0 0 -1.00206 0 288.875)"/><path d="M204.73 171.717C204.986 171.052 205.037 170.386 204.832 170.13 204.627 169.926 204.781 169.926 205.139 170.13 205.446 170.335 205.753 170.233 205.753 169.977 205.753 169.107 207.135 169.311 207.494 170.182 207.647 170.591 207.494 170.949 207.135 170.949 206.675 170.949 206.675 171.052 207.135 171.359 208.057 171.973 207.186 172.894 205.651 172.894 204.474 172.894 204.32 172.741 204.73 171.717Z" fill="#FA02C3" transform="matrix(1 0 0 -1.00206 0 288.875)"/><path d="M275.003 171.308C275.106 170.847 276.795 168.902 277.102 168.902 277.511 168.902 277.204 171.001 276.743 171.308 275.72 171.922 274.85 171.922 275.003 171.308Z" fill="#FA02C3" transform="matrix(1 0 0 -1.00206 0 288.875)"/><path d="M277.409 171.512C277.409 171.205 277.665 170.847 277.921 170.693 278.228 170.54 278.432 170.693 278.432 171.052 278.432 171.461 278.586 171.512 278.842 171.154 279.047 170.898 280.275 170.642 281.606 170.642 282.936 170.693 283.807 170.898 283.551 171.154 282.936 171.768 277.409 172.075 277.409 171.512Z" fill="#FA02C3" transform="matrix(1 0 0 -1.00206 0 288.875)"/><path d="M279.968 168.851C279.968 168.595 280.224 168.493 280.48 168.646 280.787 168.8 280.992 169.056 280.992 169.209 280.992 169.311 280.787 169.414 280.48 169.414 280.224 169.414 279.968 169.158 279.968 168.851Z" fill="#FA02C3" transform="matrix(1 0 0 -1.00206 0 288.875)"/><path d="M195.261 166.343C196.285 165.217 196.285 165.217 194.749 164.398 193.93 163.937 193.879 163.835 194.544 163.784 195.926 163.784 196.694 165.063 196.029 166.292 195.722 166.906 195.21 167.367 194.903 167.367 194.596 167.367 194.749 166.906 195.261 166.343Z" fill="#FA02C3" transform="matrix(1 0 0 -1.00206 0 288.875)"/><path d="M262.566 165.985C263.794 165.268 265.534 164.552 266.405 164.5L267.94 164.347 266.405 164.91C265.586 165.217 264.511 165.729 264.101 166.087 263.692 166.445 262.668 166.855 261.798 167.059 260.467 167.367 260.519 167.213 262.566 165.985Z" fill="#FA02C3" transform="matrix(1 0 0 -1.00206 0 288.875)"/><path d="M258.42 163.426C258.011 162.965 257.959 162.709 258.318 162.914 258.625 163.118 258.983 163.016 259.085 162.658 259.239 162.248 259.444 162.351 259.648 162.914 260.109 164.091 259.239 164.449 258.42 163.426Z" fill="#FA02C3" transform="matrix(1 0 0 -1.00206 0 288.875)"/><path d="M268.708 163.784C269.117 163.528 269.731 163.272 269.987 163.272 270.294 163.272 270.141 163.528 269.731 163.784 269.322 164.04 268.759 164.296 268.452 164.296 268.196 164.296 268.298 164.04 268.708 163.784Z" fill="#FA02C3" transform="matrix(1 0 0 -1.00206 0 288.875)"/><path d="M271.472 162.555C272.035 162.095 272.7 161.736 273.007 161.736 273.621 161.736 273.365 161.992 271.779 162.709 270.55 163.272 270.55 163.272 271.472 162.555Z" fill="#FA02C3" transform="matrix(1 0 0 -1.00206 0 288.875)"/><path d="M195.005 162.504C195.005 162.402 195.517 161.992 196.182 161.685 197.206 161.122 197.257 161.122 196.592 161.89 195.926 162.709 195.005 163.067 195.005 162.504Z" fill="#FA02C3" transform="matrix(1 0 0 -1.00206 0 288.875)"/><path d="M276.897 161.992C277.255 161.532 277.665 161.327 277.767 161.429 278.125 161.788 277.409 162.76 276.795 162.76 276.488 162.76 276.488 162.453 276.897 161.992Z" fill="#FA02C3" transform="matrix(1 0 0 -1.00206 0 288.875)"/><path d="M213.328 160.866C212.305 160.457 211.332 159.74 211.179 159.331 210.974 158.87 211.076 158.768 211.537 159.024 211.844 159.229 212.561 159.433 213.124 159.433 213.635 159.433 214.403 159.945 214.813 160.61 215.273 161.225 215.529 161.736 215.427 161.685 215.324 161.634 214.352 161.276 213.328 160.866Z" fill="#FA02C3" transform="matrix(1 0 0 -1.00206 0 288.875)"/><path d="M259.597 160.457C259.597 159.638 259.7 159.331 259.853 159.843 259.956 160.303 259.956 161.02 259.853 161.378 259.7 161.685 259.597 161.327 259.597 160.457Z" fill="#FA02C3" transform="matrix(1 0 0 -1.00206 0 288.875)"/><path d="M251.869 159.433C250.999 158.41 250.282 157.181 250.282 156.618 250.282 156.055 249.77 155.185 249.156 154.571 248.235 153.752 248.184 153.547 248.9 153.547 249.412 153.547 249.617 153.291 249.463 152.78 249.207 152.217 249.361 152.114 249.975 152.319 250.436 152.472 250.794 152.831 250.794 153.138 250.794 153.394 251.05 153.445 251.357 153.291 251.664 153.087 252.022 153.445 252.176 154.059 252.381 154.725 252.739 155.032 253.199 154.827 253.814 154.622 253.916 154.827 253.66 155.851 253.404 156.772 253.558 157.232 254.121 157.437 254.53 157.591 254.735 157.949 254.581 158.205 254.428 158.461 254.633 158.666 255.042 158.666 255.707 158.666 255.707 158.87 255.247 159.945 254.428 161.685 253.763 161.532 251.869 159.433Z" fill="#FA02C3" transform="matrix(1 0 0 -1.00206 0 288.875)"/><path d="M276.129 160.559C276.641 160.15 277.511 159.945 278.023 160.099 279.251 160.406 279.098 160.508 276.897 160.918 275.31 161.225 275.259 161.173 276.129 160.559Z" fill="#FA02C3" transform="matrix(1 0 0 -1.00206 0 288.875)"/><path d="M215.99 160.047C215.99 159.075 216.809 158.461 217.218 159.126 217.372 159.382 217.167 159.843 216.758 160.201 216.143 160.713 215.99 160.713 215.99 160.047Z" fill="#FA02C3" transform="matrix(1 0 0 -1.00206 0 288.875)"/><path d="M265.227 157.693C265.586 157.13 266.046 156.823 266.251 156.977 266.763 157.232 265.739 158.666 265.074 158.666 264.818 158.666 264.869 158.205 265.227 157.693Z" fill="#FA02C3" transform="matrix(1 0 0 -1.00206 0 288.875)"/><path d="M263.334 157.642C263.487 157.386 263.743 157.13 263.897 157.13 263.999 157.13 264.101 157.386 264.101 157.642 264.101 157.949 263.845 158.154 263.538 158.154 263.282 158.154 263.18 157.949 263.334 157.642Z" fill="#FA02C3" transform="matrix(1 0 0 -1.00206 0 288.875)"/><path d="M205.446 155.799C205.6 155.339 205.753 154.878 205.753 154.776 205.753 154.673 206.521 154.571 207.442 154.571L209.08 154.622 207.852 155.595C206.419 156.823 204.986 156.977 205.446 155.799Z" fill="#FA02C3" transform="matrix(1 0 0 -1.00206 0 288.875)"/><path d="M242.656 156.004C243.117 155.646 243.731 154.827 244.089 154.161 244.447 153.547 244.959 153.138 245.215 153.343 245.829 153.701 244.396 155.441 242.861 156.158 241.991 156.618 241.939 156.567 242.656 156.004Z" fill="#FA02C3" transform="matrix(1 0 0 -1.00206 0 288.875)"/><path d="M194.852 154.264C194.391 153.803 195.415 152.012 196.131 152.012 196.438 152.012 196.336 152.421 195.875 152.933 195.363 153.445 195.159 154.059 195.363 154.213 195.517 154.417 195.568 154.571 195.415 154.571 195.312 154.571 195.005 154.417 194.852 154.264Z" fill="#FA02C3" transform="matrix(1 0 0 -1.00206 0 288.875)"/><path d="M260.263 153.701C260.467 153.189 260.775 152.165 260.928 151.398 261.03 150.579 261.286 149.965 261.491 149.965 261.696 149.965 262.208 150.579 262.617 151.398 263.436 152.831 263.385 154.571 262.515 154.571 261.849 154.571 261.952 153.854 262.668 153.138 263.129 152.677 263.129 152.524 262.617 152.524 262.259 152.524 262.156 152.319 262.31 152.012 262.464 151.756 262.412 151.5 262.156 151.5 261.849 151.5 261.389 152.217 261.082 153.035 260.826 153.906 260.416 154.571 260.211 154.571 260.058 154.571 260.058 154.161 260.263 153.701Z" fill="#FA02C3" transform="matrix(1 0 0 -1.00206 0 288.875)"/><path d="M192.855 153.701C193.214 153.547 193.674 153.598 193.828 153.752 194.033 153.906 193.726 154.059 193.163 154.008 192.6 154.008 192.446 153.854 192.855 153.701Z" fill="#FA02C3" transform="matrix(1 0 0 -1.00206 0 288.875)"/><path d="M230.73 141.161C231.089 140.803 230.833 140.24 229.656 139.267 228.785 138.551 227.915 137.988 227.711 138.039 227.506 138.09 227.199 137.834 227.045 137.425 226.892 137.015 226.994 136.657 227.301 136.657 227.608 136.657 227.455 136.299 227.045 135.838 226.022 134.815 226.022 134.098 226.994 134.098 227.404 134.098 227.762 133.893 227.762 133.586 227.762 133.33 227.455 133.074 227.045 133.074 226.636 133.074 225.97 132.102 225.459 130.925 223.514 126.062 221.466 124.476 214.096 122.377 211.076 121.456 210.257 120.995 209.387 119.613 208.159 117.566 199.97 109.53 195.773 106.152 194.084 104.822 192.344 103.337 191.934 102.877 191.525 102.416 188.863 100.01 186.048 97.5537 183.233 95.0458 180.623 92.7426 180.265 92.3843 179.65 91.8725 180.111 90.4905 182.721 84.3998 184.461 80.3564 186.099 76.8248 186.253 76.6201 186.458 76.4154 188.3 77.5414 190.296 79.1792 209.797 95.097 222.081 108.2 229.348 120.893 231.089 123.964 231.498 125.141 231.549 127.444 231.601 129.645 231.856 130.566 232.829 131.692 233.545 132.46 234.518 133.074 235.03 133.074 236.565 133.074 241.069 137.885 241.069 139.523 241.069 139.728 240.609 139.421 240.046 138.807 238.664 137.322 236.975 137.271 237.333 138.704 237.538 139.523 237.231 139.882 235.9 140.445 233.494 141.417 229.963 141.929 230.73 141.161Z" fill="#FA02C3" transform="matrix(1 0 0 -1.00206 0 288.875)"/><path d="M223.207 133.228C223.207 130.925 223.053 128.673 222.848 128.366 222.592 127.956 222.797 127.956 223.36 128.417 223.974 128.98 224.179 129.594 223.974 130.618 223.77 131.641 223.872 132.051 224.435 132.051 225.356 132.051 225.51 132.358 225.97 134.917 226.278 136.964 226.226 137.067 224.793 137.271L223.258 137.476 223.207 133.228Z" fill="#FA02C3" transform="matrix(1 0 0 -1.00206 0 288.875)"/><path d="M250.129 136.248C249.668 136.145 249.361 135.838 249.514 135.582 249.668 135.326 249.514 135.224 249.156 135.378 248.798 135.531 247.416 134.61 246.085 133.33 243.731 131.129 243.628 130.925 243.68 128.314 243.731 126.83 243.577 124.885 243.424 124.015 243.168 122.889 243.372 121.917 244.191 120.483 244.754 119.357 245.317 118.436 245.369 118.385 245.42 118.334 245.42 119.562 245.42 121.098 245.369 123.043 245.573 123.861 246.034 123.861 246.392 123.861 246.699 124.322 246.699 124.885 246.699 125.448 246.495 125.909 246.188 125.909 245.932 125.909 245.676 126.421 245.676 126.984 245.676 128.007 245.88 128.058 247.928 127.803 249.924 127.495 250.282 127.598 250.538 128.519 250.794 129.184 250.589 129.799 250.026 130.157 249.566 130.515 249.361 131.129 249.514 131.59 249.873 132.511 252.329 133.842 252.329 133.126 252.329 132.87 252.022 132.511 251.715 132.358 251.357 132.204 251.971 132.204 253.097 132.358 255.759 132.767 255.912 132.87 255.912 134.661 255.912 136.196 256.015 136.145 252.329 136.401 251.613 136.401 250.64 136.35 250.129 136.248Z" fill="#FA02C3" transform="matrix(1 0 0 -1.00206 0 288.875)"/><path d="M233.238 131.129C232.164 129.952 232.112 129.44 233.085 129.799 233.494 129.952 233.904 130.515 234.057 131.078 234.364 132.307 234.262 132.307 233.238 131.129Z" fill="#FA02C3" transform="matrix(1 0 0 -1.00206 0 288.875)"/><path d="M216.246 130.259C215.836 129.543 215.12 128.417 214.71 127.7 213.482 125.704 214.147 126.165 216.502 128.98 217.986 130.72 218.395 131.539 217.832 131.539 217.423 131.539 216.706 130.976 216.246 130.259Z" fill="#FA02C3" transform="matrix(1 0 0 -1.00206 0 288.875)"/><path d="M236.975 123.861C236.975 123.554 237.231 123.452 237.538 123.606 237.845 123.81 237.794 123.503 237.435 122.94 237.077 122.326 236.923 121.661 237.179 121.456 237.64 120.995 239.124 122.838 238.868 123.606 238.613 124.322 236.975 124.578 236.975 123.861Z" fill="#FA02C3" transform="matrix(1 0 0 -1.00206 0 288.875)"/><path d="M235.951 120.791C235.951 120.535 236.207 120.279 236.514 120.279 236.77 120.279 236.872 120.535 236.719 120.791 236.565 121.098 236.309 121.302 236.156 121.302 236.053 121.302 235.951 121.098 235.951 120.791Z" fill="#FA02C3" transform="matrix(1 0 0 -1.00206 0 288.875)"/><path d="M246.597 116.082C248.593 112.806 255.042 109.735 256.117 111.475 256.629 112.345 253.763 114.444 252.841 113.881 252.534 113.727 251.92 113.83 251.459 114.086 250.794 114.444 250.743 114.597 251.255 114.649 251.664 114.649 251.869 114.802 251.715 114.956 251.51 115.109 250.896 114.956 250.282 114.649 249.361 114.137 249.207 114.188 249.361 114.751 249.617 115.365 247.006 117.72 246.034 117.72 245.778 117.72 246.034 116.952 246.597 116.082Z" fill="#FA02C3" transform="matrix(1 0 0 -1.00206 0 288.875)"/><path d="M241.581 116.849C241.581 116.594 240.302 114.444 238.766 112.09 237.231 109.735 235.951 107.688 235.951 107.585 235.951 107.432 236.821 108.456 237.947 109.838 240.148 112.653 242.298 116.645 241.888 117.105 241.735 117.259 241.581 117.157 241.581 116.849Z" fill="#FA02C3" transform="matrix(1 0 0 -1.00206 0 288.875)"/><path d="M241.223 109.53C241.223 107.432 241.325 106.562 241.428 107.637 241.53 108.66 241.53 110.401 241.428 111.475 241.325 112.499 241.223 111.629 241.223 109.53Z" fill="#FA02C3" transform="matrix(1 0 0 -1.00206 0 288.875)"/><path d="M228.274 109.377C226.994 109.019 224.947 108.097 223.718 107.227 220.852 105.231 217.218 102.007 217.525 101.699 218.088 101.188 220.187 100.727 219.931 101.188 219.777 101.444 220.443 101.955 221.415 102.314 222.388 102.672 223.053 103.184 222.9 103.44 222.695 103.696 222.183 103.696 221.569 103.337 220.392 102.723 219.931 102.877 220.494 103.696 220.955 104.31 226.278 105.436 225.919 104.822 225.766 104.566 226.175 104.515 226.892 104.668 227.608 104.873 228.325 104.77 228.478 104.463 228.683 104.156 228.581 103.9 228.274 103.9 227.967 103.9 227.864 103.696 228.018 103.389 228.171 103.133 228.018 102.877 227.659 102.826 227.301 102.826 227.506 102.621 228.069 102.365 229.656 101.751 230.628 102.007 232.112 103.389 233.187 104.361 233.392 104.463 233.699 103.747 233.853 103.337 233.75 102.518 233.443 101.904 232.675 100.471 232.727 100.164 233.853 100.471 234.62 100.625 234.774 100.522 234.569 99.8569 234.416 99.3963 234.774 99.8057 235.388 100.727 235.951 101.597 236.821 102.365 237.282 102.365 237.998 102.365 238.049 102.723 237.845 104.259 237.64 105.333 237.077 106.459 236.616 106.818 236.105 107.176 235.337 107.739 234.927 108.148 234.313 108.711 230.833 110.196 230.628 109.991 230.577 109.991 229.553 109.684 228.274 109.377Z" fill="#FA02C3" transform="matrix(1 0 0 -1.00206 0 288.875)"/><path d="M230.526 100.215 229.041 98.5262 230.73 100.01C231.601 100.881 232.368 101.597 232.368 101.699 232.368 102.109 231.959 101.751 230.526 100.215Z" fill="#FA02C3" transform="matrix(1 0 0 -1.00206 0 288.875)"/><path d="M224.333 94.841C224.333 94.2269 225.203 93.9709 226.636 94.1245 226.943 94.1757 227.25 93.8174 227.25 93.3056 227.301 92.4867 227.301 92.4355 227.762 93.2544 228.632 94.6363 227.864 95.66 226.022 95.5576 225.049 95.5064 224.333 95.1993 224.333 94.841Z" fill="#FA02C3" transform="matrix(1 0 0 -1.00206 0 288.875)"/></g></svg>